# xmcd
#
# Track frame offsets:
#	150
#	17663
#	33922
#	45764
#	68672
#
# Disc length: 1241 seconds
#
# Revision: 0
# Processed by: cddbd v1.5.1PL0 Copyright (c) Steve Scherf et al.
# Submitted via: dBpowerAMP V4.0
#
DISCID=2d04d705
DTITLE=Don Brewer Blues Project - Don Brewer Blues Project
DYEAR=1900
DGENRE=Blues
TTITLE0=Wanted It That Way
TTITLE1=Swing 99
TTITLE2=Can't We Get It Right
TTITLE3=Hurricane Hurricane
TTITLE4=The Blues Are Back In Town
EXTD=
EXTT0=
EXTT1=
EXTT2=
EXTT3=
EXTT4=
PLAYORDER=
